<svg 
 xmlns="http://www.w3.org/2000/svg"
 xmlns:xlink="http://www.w3.org/1999/xlink"
 width="141px" height="37px">
<path fill-rule="evenodd"  fill="rgb(208, 226, 226)"
 d="M139.531,24.666 C139.531,24.666 132.689,21.583 125.872,21.583 C119.103,21.583 112.359,24.666 112.359,24.666 C112.232,24.666 112.110,24.644 111.992,24.612 C111.874,24.644 111.752,24.666 111.625,24.666 C111.625,24.666 104.881,27.750 98.112,27.750 C91.295,27.750 84.453,24.666 84.453,24.666 C84.184,24.666 83.935,24.585 83.719,24.452 C83.502,24.585 83.253,24.666 82.984,24.666 C82.984,24.666 76.142,21.583 69.325,21.583 C64.111,21.583 58.926,23.408 56.812,24.249 C56.550,24.506 56.200,24.666 55.812,24.666 C55.812,24.666 49.068,27.750 42.300,27.750 C35.482,27.750 28.641,24.666 28.641,24.666 C28.258,24.666 27.914,24.509 27.652,24.259 C25.527,23.423 20.254,21.583 14.981,21.583 C8.213,21.583 1.469,24.666 1.469,24.666 C0.657,24.666 -0.000,23.976 -0.000,23.125 C-0.000,22.273 0.657,21.583 1.469,21.583 C1.469,21.583 8.213,18.500 14.981,18.500 C21.798,18.500 28.641,21.583 28.641,21.583 C29.022,21.583 29.367,21.740 29.628,21.991 C31.753,22.826 37.026,24.666 42.300,24.666 C47.514,24.666 52.700,22.841 54.813,22.001 C55.075,21.744 55.425,21.583 55.812,21.583 C55.812,21.583 62.556,18.500 69.325,18.500 C76.142,18.500 82.984,21.583 82.984,21.583 C83.253,21.583 83.502,21.664 83.719,21.797 C83.935,21.664 84.184,21.583 84.453,21.583 C84.453,21.583 91.295,24.666 98.112,24.666 C104.881,24.666 111.625,21.583 111.625,21.583 C111.752,21.583 111.874,21.605 111.992,21.638 C112.110,21.605 112.232,21.583 112.359,21.583 C112.359,21.583 119.103,18.500 125.872,18.500 C132.689,18.500 139.531,21.583 139.531,21.583 C140.342,21.583 141.000,22.273 141.000,23.125 C141.000,23.976 140.342,24.666 139.531,24.666 ZM139.531,15.416 C139.531,15.416 132.689,12.333 125.872,12.333 C119.103,12.333 112.359,15.416 112.359,15.416 C112.232,15.416 112.110,15.394 111.992,15.362 C111.874,15.394 111.752,15.416 111.625,15.416 C111.625,15.416 104.881,18.500 98.112,18.500 C91.295,18.500 84.453,15.416 84.453,15.416 C84.184,15.416 83.935,15.335 83.719,15.202 C83.502,15.335 83.253,15.416 82.984,15.416 C82.984,15.416 76.142,12.333 69.325,12.333 C64.111,12.333 58.926,14.158 56.812,14.998 C56.550,15.256 56.200,15.416 55.812,15.416 C55.812,15.416 49.068,18.500 42.300,18.500 C35.482,18.500 28.641,15.416 28.641,15.416 C28.258,15.416 27.914,15.259 27.652,15.009 C25.527,14.173 20.254,12.333 14.981,12.333 C8.213,12.333 1.469,15.416 1.469,15.416 C0.657,15.416 -0.000,14.726 -0.000,13.875 C-0.000,13.023 0.657,12.333 1.469,12.333 C1.469,12.333 8.213,9.250 14.981,9.250 C21.798,9.250 28.641,12.333 28.641,12.333 C29.022,12.333 29.367,12.490 29.628,12.740 C31.753,13.576 37.026,15.416 42.300,15.416 C47.514,15.416 52.700,13.591 54.813,12.751 C55.075,12.493 55.425,12.333 55.812,12.333 C55.812,12.333 62.556,9.250 69.325,9.250 C76.142,9.250 82.984,12.333 82.984,12.333 C83.253,12.333 83.502,12.414 83.719,12.547 C83.935,12.414 84.184,12.333 84.453,12.333 C84.453,12.333 91.295,15.416 98.112,15.416 C104.881,15.416 111.625,12.333 111.625,12.333 C111.752,12.333 111.874,12.355 111.992,12.387 C112.110,12.355 112.232,12.333 112.359,12.333 C112.359,12.333 119.103,9.250 125.872,9.250 C132.689,9.250 139.531,12.333 139.531,12.333 C140.342,12.333 141.000,13.023 141.000,13.875 C141.000,14.726 140.342,15.416 139.531,15.416 ZM139.531,6.166 C139.531,6.166 132.689,3.083 125.872,3.083 C119.103,3.083 112.359,6.166 112.359,6.166 C112.232,6.166 112.110,6.144 111.992,6.112 C111.874,6.144 111.752,6.166 111.625,6.166 C111.625,6.166 104.881,9.250 98.112,9.250 C91.295,9.250 84.453,6.166 84.453,6.166 C84.184,6.166 83.935,6.085 83.719,5.953 C83.502,6.085 83.253,6.166 82.984,6.166 C82.984,6.166 76.142,3.083 69.325,3.083 C64.111,3.083 58.925,4.908 56.812,5.749 C56.549,6.006 56.200,6.166 55.812,6.166 C55.812,6.166 49.068,9.250 42.300,9.250 C35.482,9.250 28.641,6.166 28.641,6.166 C28.259,6.166 27.914,6.010 27.653,5.759 C25.528,4.923 20.254,3.083 14.981,3.083 C8.213,3.083 1.469,6.166 1.469,6.166 C0.657,6.166 -0.000,5.476 -0.000,4.625 C-0.000,3.773 0.657,3.083 1.469,3.083 C1.469,3.083 8.213,-0.000 14.981,-0.000 C21.798,-0.000 28.641,3.083 28.641,3.083 C29.022,3.083 29.367,3.240 29.628,3.490 C31.753,4.326 37.026,6.166 42.300,6.166 C47.514,6.166 52.700,4.341 54.813,3.501 C55.075,3.243 55.425,3.083 55.812,3.083 C55.812,3.083 62.556,-0.000 69.325,-0.000 C76.142,-0.000 82.984,3.083 82.984,3.083 C83.253,3.083 83.502,3.164 83.719,3.297 C83.935,3.164 84.184,3.083 84.453,3.083 C84.453,3.083 91.295,6.166 98.112,6.166 C104.881,6.166 111.625,3.083 111.625,3.083 C111.752,3.083 111.874,3.105 111.992,3.137 C112.110,3.105 112.232,3.083 112.359,3.083 C112.359,3.083 119.103,-0.000 125.872,-0.000 C132.689,-0.000 139.531,3.083 139.531,3.083 C140.342,3.083 141.000,3.773 141.000,4.625 C141.000,5.476 140.342,6.166 139.531,6.166 ZM1.469,30.833 C1.469,30.833 8.213,27.750 14.981,27.750 C21.798,27.750 28.641,30.833 28.641,30.833 C29.022,30.833 29.367,30.990 29.628,31.241 C31.753,32.076 37.026,33.916 42.300,33.916 C47.514,33.916 52.700,32.091 54.813,31.251 C55.075,30.994 55.425,30.833 55.812,30.833 C55.812,30.833 62.556,27.750 69.325,27.750 C76.142,27.750 82.984,30.833 82.984,30.833 C83.253,30.833 83.502,30.914 83.719,31.047 C83.935,30.914 84.184,30.833 84.453,30.833 C84.453,30.833 91.295,33.916 98.112,33.916 C104.881,33.916 111.625,30.833 111.625,30.833 C111.752,30.833 111.874,30.855 111.992,30.888 C112.110,30.855 112.232,30.833 112.359,30.833 C112.359,30.833 119.103,27.750 125.872,27.750 C132.689,27.750 139.531,30.833 139.531,30.833 C140.342,30.833 141.000,31.523 141.000,32.375 C141.000,33.226 140.342,33.916 139.531,33.916 C139.531,33.916 132.689,30.833 125.872,30.833 C119.103,30.833 112.359,33.916 112.359,33.916 C112.232,33.916 112.110,33.894 111.992,33.862 C111.874,33.894 111.752,33.916 111.625,33.916 C111.625,33.916 104.881,37.000 98.112,37.000 C91.295,37.000 84.453,33.916 84.453,33.916 C84.184,33.916 83.935,33.835 83.719,33.702 C83.502,33.835 83.253,33.916 82.984,33.916 C82.984,33.916 76.142,30.833 69.325,30.833 C64.111,30.833 58.925,32.658 56.812,33.499 C56.549,33.756 56.200,33.916 55.812,33.916 C55.812,33.916 49.068,37.000 42.300,37.000 C35.482,37.000 28.641,33.916 28.641,33.916 C28.259,33.916 27.914,33.760 27.653,33.509 C25.528,32.673 20.254,30.833 14.981,30.833 C8.213,30.833 1.469,33.916 1.469,33.916 C0.657,33.916 -0.000,33.226 -0.000,32.375 C-0.000,31.523 0.657,30.833 1.469,30.833 Z"/>
</svg>