<svg 
 xmlns="http://www.w3.org/2000/svg"
 xmlns:xlink="http://www.w3.org/1999/xlink"
 width="59px" height="4px">
<path fill-rule="evenodd"  fill="rgb(255, 255, 255)"
 d="M58.385,2.667 C58.385,2.667 55.522,1.333 52.670,1.333 C49.837,1.333 47.015,2.667 47.015,2.667 C46.962,2.667 46.911,2.657 46.862,2.643 C46.812,2.657 46.761,2.667 46.708,2.667 C46.708,2.667 43.886,4.000 41.054,4.000 C38.201,4.000 35.338,2.667 35.338,2.667 C35.226,2.667 35.122,2.631 35.031,2.574 C34.940,2.631 34.836,2.667 34.724,2.667 C34.724,2.667 31.861,1.333 29.008,1.333 C26.826,1.333 24.657,2.122 23.772,2.486 C23.662,2.597 23.516,2.667 23.354,2.667 C23.354,2.667 20.532,4.000 17.700,4.000 C14.847,4.000 11.984,2.667 11.984,2.667 C11.824,2.667 11.680,2.599 11.571,2.490 C10.682,2.129 8.475,1.333 6.269,1.333 C3.436,1.333 0.614,2.667 0.614,2.667 C0.275,2.667 -0.000,2.368 -0.000,2.000 C-0.000,1.632 0.275,1.333 0.614,1.333 C0.614,1.333 3.436,-0.000 6.269,-0.000 C9.121,-0.000 11.984,1.333 11.984,1.333 C12.144,1.333 12.288,1.401 12.397,1.509 C13.286,1.871 15.493,2.667 17.700,2.667 C19.881,2.667 22.052,1.877 22.936,1.514 C23.046,1.402 23.192,1.333 23.354,1.333 C23.354,1.333 26.176,-0.000 29.008,-0.000 C31.861,-0.000 34.724,1.333 34.724,1.333 C34.836,1.333 34.940,1.368 35.031,1.426 C35.122,1.368 35.226,1.333 35.338,1.333 C35.338,1.333 38.201,2.667 41.054,2.667 C43.886,2.667 46.708,1.333 46.708,1.333 C46.761,1.333 46.812,1.343 46.862,1.357 C46.911,1.343 46.962,1.333 47.015,1.333 C47.015,1.333 49.837,-0.000 52.670,-0.000 C55.522,-0.000 58.385,1.333 58.385,1.333 C58.725,1.333 59.000,1.632 59.000,2.000 C59.000,2.368 58.725,2.667 58.385,2.667 Z"/>
</svg>